<svg xmlns="http://www.w3.org/2000/svg" viewBox="0 0 7680 1080"><svg xmlns="http://www.w3.org/2000/svg" viewBox="0 0 3840 1080" height="1080" width="3840" x="0"><svg xmlns="http://www.w3.org/2000/svg" version="1.1" viewBox="0 0 1920 1080" height="1080" width="1920" x="0"><defs><style>      .cls-1 {        fill: none;        stroke: #000;        stroke-miterlimit: 10;      }      .cls-2 {        fill: #6464b5;      }      .cls-2, .cls-3, .cls-4, .cls-5 {        stroke-width: 0px;      }      .cls-3 {        fill: #2fffc8;      }      .cls-4 {        fill: #444c83;      }      .cls-5 {        fill: #363d47;      }    </style></defs><g id="Layer_2" data-name="Layer 2"><rect class="cls-2" x="-2" y="897" width="61" height="61" /><rect class="cls-2" x="59" y="897" width="61" height="61" /><rect class="cls-2" x="58" y="836" width="61" height="61" /><rect class="cls-2" x="-2" y="836" width="61" height="61" /><rect class="cls-2" x="-2" y="776" width="61" height="61" /><rect class="cls-2" x="-2" y="588" width="122" height="249" /><rect class="cls-2" x="112" y="710" width="122" height="249" /><rect class="cls-2" x="119" y="689" width="21" height="21" /><rect class="cls-2" x="140" y="689" width="21" height="21" /><rect class="cls-2" x="213" y="689" width="21" height="21" /><rect class="cls-2" x="192" y="689" width="21" height="21" /><rect class="cls-2" x="162" y="689" width="21" height="21" /><rect class="cls-2" x="177" y="689" width="21" height="21" /><rect class="cls-2" x="150" y="689" width="21" height="21" /><rect class="cls-2" x="150" y="668" width="21" height="21" /><rect class="cls-2" x="167" y="668" width="21" height="21" /><rect class="cls-2" x="188" y="668" width="21" height="21" /><rect class="cls-2" x="133" y="668" width="21" height="21" /><rect class="cls-2" x="150" y="647" width="21" height="21" /><rect class="cls-2" x="167" y="647" width="21" height="21" /><rect class="cls-2" x="234" y="843" width="583" height="115" /><rect class="cls-2" x="382" y="679" width="131" height="172" /><rect class="cls-2" x="797" y="786" width="131" height="172" /><rect class="cls-2" x="328" y="795" width="54" height="54" /><rect class="cls-2" x="453" y="619" width="60" height="60" /><rect class="cls-2" x="423" y="651" width="34" height="34" /><rect class="cls-2" x="634" y="654" width="109" height="189" /><rect class="cls-2" x="634" y="629" width="28" height="28" /><rect class="cls-2" x="743" y="815" width="28" height="28" /><rect class="cls-2" x="1184" y="657" width="137" height="303" /><rect class="cls-2" x="1320" y="854" width="600" height="104" /><rect class="cls-2" x="1320" y="773" width="81" height="81" /><rect class="cls-2" x="1752" y="786" width="69" height="69" /><rect class="cls-2" x="1821" y="786" width="69" height="69" /><rect class="cls-2" x="1820" y="717" width="69" height="69" /><rect class="cls-2" x="1371" y="743" width="30" height="30" /><rect class="cls-2" x="1184" y="601" width="56" height="56" /><rect class="cls-2" x="1184" y="601" width="56" height="56" /><rect class="cls-2" x="1184" y="601" width="56" height="56" /><rect class="cls-2" x="1401" y="807" width="48" height="48" /><rect class="cls-2" x="1854" y="683" width="35" height="34" /></g><g id="Layer_3" data-name="Layer 3"><rect class="cls-3" x="1194" y="620" width="12" height="46" /><rect class="cls-3" x="1217" y="620" width="12" height="46" /><rect class="cls-3" x="1252" y="888" width="18" height="18" /><rect class="cls-3" x="1287" y="822" width="18" height="18" /><rect class="cls-3" x="1240" y="768" width="18" height="18" /><rect class="cls-3" x="1287" y="717" width="18" height="18" /><rect class="cls-3" x="1379" y="752" width="14" height="12" /><rect class="cls-3" x="1761" y="796" width="51" height="8" /><rect class="cls-3" x="1761" y="811" width="51" height="8" /><rect class="cls-3" x="1761" y="827" width="51" height="8" /><rect class="cls-3" x="1761" y="841" width="51" height="8" /><rect class="cls-3" x="1350" y="888" width="66" height="13" /><rect class="cls-3" x="1436" y="888" width="66" height="13" /><rect class="cls-3" x="1525" y="888" width="66" height="13" /><rect class="cls-3" x="1610" y="888" width="66" height="13" /><rect class="cls-3" x="1829" y="729" width="25" height="70" /><rect class="cls-3" x="1768" y="897" width="26" height="26" /><rect class="cls-3" x="1828" y="923" width="26" height="26" /><rect class="cls-3" x="1841" y="855" width="26" height="26" /><rect class="cls-3" x="1194" y="676" width="34" height="25" /><rect class="cls-3" x="17" y="612" width="31" height="31" /><rect class="cls-3" x="73" y="612" width="31" height="31" /><rect class="cls-3" x="73" y="653" width="31" height="31" /><rect class="cls-3" x="17" y="653" width="31" height="31" /><rect class="cls-3" x="17" y="704" width="87" height="25" /><rect class="cls-3" x="17" y="743" width="95" height="10" /><rect class="cls-3" x="649" y="681" width="17" height="70" /><rect class="cls-3" x="680" y="682" width="17" height="70" /><rect class="cls-3" x="709" y="682" width="17" height="70" /><rect class="cls-3" x="457.5" y="646.5" width="17" height="60" transform="translate(1142.5 210.5) rotate(90)" /><rect class="cls-3" x="83" y="872" width="22" height="23" /><rect class="cls-3" x="143" y="807" width="22" height="23" /><rect class="cls-3" x="37" y="787" width="22" height="23" /><rect class="cls-3" x="173" y="905" width="22" height="23" /><rect class="cls-3" x="259" y="872" width="22" height="23" /><rect class="cls-3" x="490" y="872" width="24" height="53" /><rect class="cls-3" x="527" y="872" width="24" height="53" /><rect class="cls-3" x="564" y="875" width="24" height="53" /><rect class="cls-3" x="338" y="805" width="34" height="34" /><rect class="cls-3" x="398" y="701" width="10" height="86" /><rect class="cls-3" x="423" y="704" width="9" height="82" /><rect class="cls-3" x="838" y="849" width="24" height="23" /><rect class="cls-3" x="743" y="888" width="22" height="22" /><rect class="cls-3" x="673" y="849" width="19" height="19" /></g><g id="Layer_4" data-name="Layer 4"><rect class="cls-4" x="229" y="658" width="160" height="299" /><rect class="cls-4" x="385" y="765" width="145" height="221" /><rect class="cls-4" x="385" y="718" width="50" height="50" /><rect class="cls-4" x="425" y="738" width="30" height="30" /><rect class="cls-4" x="229" y="629" width="30" height="30" /><rect class="cls-4" x="257" y="629" width="30" height="30" /><rect class="cls-4" x="229" y="604" width="30" height="30" /><rect class="cls-4" x="389" y="682" width="39" height="39" /><rect class="cls-4" x="526" y="931" width="27" height="27" /><rect class="cls-4" x="899" y="567" width="179" height="395" /><rect class="cls-4" x="757" y="786" width="142" height="171" /><rect class="cls-4" x="899" y="532" width="35" height="35" /><rect class="cls-4" x="841" y="732" width="60" height="60" /><rect class="cls-4" x="1078" y="891" width="66" height="66" /><rect class="cls-4" x="108" y="789" width="119" height="172" /><rect class="cls-4" x="1042" y="923" width="102" height="37" /><rect class="cls-4" x="1141" y="928" width="72" height="33" /><rect class="cls-4" x="1075" y="865" width="36" height="33" /><rect class="cls-4" x="1213" y="823" width="243" height="143" /><rect class="cls-4" x="1448" y="627" width="177" height="338" /><rect class="cls-4" x="1374" y="744" width="85" height="85" /><rect class="cls-4" x="1334" y="792" width="40" height="37" /><rect class="cls-4" x="1449" y="584" width="50" height="50" /><rect class="cls-4" x="1490" y="607" width="24" height="24" /><rect class="cls-4" x="1625" y="910" width="295" height="47" /><rect class="cls-4" x="0" y="861" width="108" height="96" /><rect class="cls-4" x="73" y="823" width="39" height="39" /></g><g id="Layer_5" data-name="Layer 5"><rect class="cls-3" x="961" y="582" width="103" height="13" /><rect class="cls-3" x="961" y="606" width="103" height="13" /><rect class="cls-3" x="961" y="630" width="103" height="13" /><rect class="cls-3" x="889" y="624" width="103" height="13" transform="translate(1571 -310) rotate(90)" /><rect class="cls-3" x="961" y="653" width="103" height="13" transform="translate(2025 1319) rotate(180)" /><rect class="cls-3" x="786" y="895" width="46" height="47" /><rect class="cls-3" x="788" y="837" width="42" height="42" /><rect class="cls-3" x="916" y="786" width="31" height="31" /><rect class="cls-3" x="989" y="732" width="23" height="24" /><rect class="cls-3" x="988" y="899" width="34" height="35" /><rect class="cls-3" x="1000" y="792" width="12" height="73" /><rect class="cls-3" x="491" y="787" width="23" height="54" /><rect class="cls-3" x="292" y="673" width="74" height="21" /><rect class="cls-3" x="296" y="707" width="102" height="14" /><rect class="cls-3" x="281" y="897" width="26" height="26" /><rect class="cls-3" x="329" y="789" width="28" height="28" /><rect class="cls-3" x="408" y="851" width="27" height="27" /><rect class="cls-3" x="1228" y="842" width="7" height="68" /><rect class="cls-3" x="1249" y="842" width="7" height="68" /><rect class="cls-3" x="1269" y="842" width="7" height="68" /><rect class="cls-3" x="1374" y="836" width="25" height="25" /><rect class="cls-3" x="1425" y="795" width="25" height="26" /><rect class="cls-3" x="1434" y="859" width="33" height="33" /><rect class="cls-3" x="1483" y="676" width="31" height="41" /><rect class="cls-3" x="1546" y="643" width="56" height="19" /><rect class="cls-3" x="1546" y="800" width="34" height="35" /><rect class="cls-3" x="1477" y="655" width="42" height="9" /><rect class="cls-3" x="102" y="852" width="90" height="14" /><rect class="cls-3" x="99" y="880" width="95" height="12" /><rect class="cls-3" x="28" y="910" width="32" height="33" /></g><g id="Layer_1" data-name="Layer 1"><rect class="cls-5" x="-2.5" y="1018.5" width="61" height="61" transform="translate(-1021 1077) rotate(-90)" /><rect class="cls-5" x="959" y="118" width="61" height="1862" transform="translate(-59.5 2038.5) rotate(-90)" /><path class="cls-1" d="M-37.56,118.51" /><rect class="cls-5" x="897.5" y="57.5" width="61" height="1862" transform="translate(-60.5 1916.5) rotate(-90)" /><rect class="cls-5" x="1859" y="958" width="61" height="61" transform="translate(901 2878) rotate(-90)" /></g></svg><svg xmlns="http://www.w3.org/2000/svg" version="1.1" viewBox="0 0 1920 1080" height="1080" width="1920" x="1920"><defs><style>      .cls-1 {        fill: none;        stroke: #000;        stroke-miterlimit: 10;      }      .cls-2 {        fill: #6464b5;      }      .cls-2, .cls-3, .cls-4, .cls-5 {        stroke-width: 0px;      }      .cls-3 {        fill: #2fffc8;      }      .cls-4 {        fill: #444c83;      }      .cls-5 {        fill: #363d47;      }    </style></defs><g id="Layer_2" data-name="Layer 2"><rect class="cls-2" x="-2" y="897" width="61" height="61" /><rect class="cls-2" x="59" y="897" width="61" height="61" /><rect class="cls-2" x="58" y="836" width="61" height="61" /><rect class="cls-2" x="-2" y="836" width="61" height="61" /><rect class="cls-2" x="-2" y="776" width="61" height="61" /><rect class="cls-2" x="-2" y="588" width="122" height="249" /><rect class="cls-2" x="112" y="710" width="122" height="249" /><rect class="cls-2" x="119" y="689" width="21" height="21" /><rect class="cls-2" x="140" y="689" width="21" height="21" /><rect class="cls-2" x="213" y="689" width="21" height="21" /><rect class="cls-2" x="192" y="689" width="21" height="21" /><rect class="cls-2" x="162" y="689" width="21" height="21" /><rect class="cls-2" x="177" y="689" width="21" height="21" /><rect class="cls-2" x="150" y="689" width="21" height="21" /><rect class="cls-2" x="150" y="668" width="21" height="21" /><rect class="cls-2" x="167" y="668" width="21" height="21" /><rect class="cls-2" x="188" y="668" width="21" height="21" /><rect class="cls-2" x="133" y="668" width="21" height="21" /><rect class="cls-2" x="150" y="647" width="21" height="21" /><rect class="cls-2" x="167" y="647" width="21" height="21" /><rect class="cls-2" x="234" y="843" width="583" height="115" /><rect class="cls-2" x="382" y="679" width="131" height="172" /><rect class="cls-2" x="797" y="786" width="131" height="172" /><rect class="cls-2" x="328" y="795" width="54" height="54" /><rect class="cls-2" x="453" y="619" width="60" height="60" /><rect class="cls-2" x="423" y="651" width="34" height="34" /><rect class="cls-2" x="634" y="654" width="109" height="189" /><rect class="cls-2" x="634" y="629" width="28" height="28" /><rect class="cls-2" x="743" y="815" width="28" height="28" /><rect class="cls-2" x="1184" y="657" width="137" height="303" /><rect class="cls-2" x="1320" y="854" width="600" height="104" /><rect class="cls-2" x="1320" y="773" width="81" height="81" /><rect class="cls-2" x="1752" y="786" width="69" height="69" /><rect class="cls-2" x="1821" y="786" width="69" height="69" /><rect class="cls-2" x="1820" y="717" width="69" height="69" /><rect class="cls-2" x="1371" y="743" width="30" height="30" /><rect class="cls-2" x="1184" y="601" width="56" height="56" /><rect class="cls-2" x="1184" y="601" width="56" height="56" /><rect class="cls-2" x="1184" y="601" width="56" height="56" /><rect class="cls-2" x="1401" y="807" width="48" height="48" /><rect class="cls-2" x="1854" y="683" width="35" height="34" /></g><g id="Layer_3" data-name="Layer 3"><rect class="cls-3" x="1194" y="620" width="12" height="46" /><rect class="cls-3" x="1217" y="620" width="12" height="46" /><rect class="cls-3" x="1252" y="888" width="18" height="18" /><rect class="cls-3" x="1287" y="822" width="18" height="18" /><rect class="cls-3" x="1240" y="768" width="18" height="18" /><rect class="cls-3" x="1287" y="717" width="18" height="18" /><rect class="cls-3" x="1379" y="752" width="14" height="12" /><rect class="cls-3" x="1761" y="796" width="51" height="8" /><rect class="cls-3" x="1761" y="811" width="51" height="8" /><rect class="cls-3" x="1761" y="827" width="51" height="8" /><rect class="cls-3" x="1761" y="841" width="51" height="8" /><rect class="cls-3" x="1350" y="888" width="66" height="13" /><rect class="cls-3" x="1436" y="888" width="66" height="13" /><rect class="cls-3" x="1525" y="888" width="66" height="13" /><rect class="cls-3" x="1610" y="888" width="66" height="13" /><rect class="cls-3" x="1829" y="729" width="25" height="70" /><rect class="cls-3" x="1768" y="897" width="26" height="26" /><rect class="cls-3" x="1828" y="923" width="26" height="26" /><rect class="cls-3" x="1841" y="855" width="26" height="26" /><rect class="cls-3" x="1194" y="676" width="34" height="25" /><rect class="cls-3" x="17" y="612" width="31" height="31" /><rect class="cls-3" x="73" y="612" width="31" height="31" /><rect class="cls-3" x="73" y="653" width="31" height="31" /><rect class="cls-3" x="17" y="653" width="31" height="31" /><rect class="cls-3" x="17" y="704" width="87" height="25" /><rect class="cls-3" x="17" y="743" width="95" height="10" /><rect class="cls-3" x="649" y="681" width="17" height="70" /><rect class="cls-3" x="680" y="682" width="17" height="70" /><rect class="cls-3" x="709" y="682" width="17" height="70" /><rect class="cls-3" x="457.5" y="646.5" width="17" height="60" transform="translate(1142.5 210.5) rotate(90)" /><rect class="cls-3" x="83" y="872" width="22" height="23" /><rect class="cls-3" x="143" y="807" width="22" height="23" /><rect class="cls-3" x="37" y="787" width="22" height="23" /><rect class="cls-3" x="173" y="905" width="22" height="23" /><rect class="cls-3" x="259" y="872" width="22" height="23" /><rect class="cls-3" x="490" y="872" width="24" height="53" /><rect class="cls-3" x="527" y="872" width="24" height="53" /><rect class="cls-3" x="564" y="875" width="24" height="53" /><rect class="cls-3" x="338" y="805" width="34" height="34" /><rect class="cls-3" x="398" y="701" width="10" height="86" /><rect class="cls-3" x="423" y="704" width="9" height="82" /><rect class="cls-3" x="838" y="849" width="24" height="23" /><rect class="cls-3" x="743" y="888" width="22" height="22" /><rect class="cls-3" x="673" y="849" width="19" height="19" /></g><g id="Layer_4" data-name="Layer 4"><rect class="cls-4" x="229" y="658" width="160" height="299" /><rect class="cls-4" x="385" y="765" width="145" height="221" /><rect class="cls-4" x="385" y="718" width="50" height="50" /><rect class="cls-4" x="425" y="738" width="30" height="30" /><rect class="cls-4" x="229" y="629" width="30" height="30" /><rect class="cls-4" x="257" y="629" width="30" height="30" /><rect class="cls-4" x="229" y="604" width="30" height="30" /><rect class="cls-4" x="389" y="682" width="39" height="39" /><rect class="cls-4" x="526" y="931" width="27" height="27" /><rect class="cls-4" x="899" y="567" width="179" height="395" /><rect class="cls-4" x="757" y="786" width="142" height="171" /><rect class="cls-4" x="899" y="532" width="35" height="35" /><rect class="cls-4" x="841" y="732" width="60" height="60" /><rect class="cls-4" x="1078" y="891" width="66" height="66" /><rect class="cls-4" x="108" y="789" width="119" height="172" /><rect class="cls-4" x="1042" y="923" width="102" height="37" /><rect class="cls-4" x="1141" y="928" width="72" height="33" /><rect class="cls-4" x="1075" y="865" width="36" height="33" /><rect class="cls-4" x="1213" y="823" width="243" height="143" /><rect class="cls-4" x="1448" y="627" width="177" height="338" /><rect class="cls-4" x="1374" y="744" width="85" height="85" /><rect class="cls-4" x="1334" y="792" width="40" height="37" /><rect class="cls-4" x="1449" y="584" width="50" height="50" /><rect class="cls-4" x="1490" y="607" width="24" height="24" /><rect class="cls-4" x="1625" y="910" width="295" height="47" /><rect class="cls-4" x="0" y="861" width="108" height="96" /><rect class="cls-4" x="73" y="823" width="39" height="39" /></g><g id="Layer_5" data-name="Layer 5"><rect class="cls-3" x="961" y="582" width="103" height="13" /><rect class="cls-3" x="961" y="606" width="103" height="13" /><rect class="cls-3" x="961" y="630" width="103" height="13" /><rect class="cls-3" x="889" y="624" width="103" height="13" transform="translate(1571 -310) rotate(90)" /><rect class="cls-3" x="961" y="653" width="103" height="13" transform="translate(2025 1319) rotate(180)" /><rect class="cls-3" x="786" y="895" width="46" height="47" /><rect class="cls-3" x="788" y="837" width="42" height="42" /><rect class="cls-3" x="916" y="786" width="31" height="31" /><rect class="cls-3" x="989" y="732" width="23" height="24" /><rect class="cls-3" x="988" y="899" width="34" height="35" /><rect class="cls-3" x="1000" y="792" width="12" height="73" /><rect class="cls-3" x="491" y="787" width="23" height="54" /><rect class="cls-3" x="292" y="673" width="74" height="21" /><rect class="cls-3" x="296" y="707" width="102" height="14" /><rect class="cls-3" x="281" y="897" width="26" height="26" /><rect class="cls-3" x="329" y="789" width="28" height="28" /><rect class="cls-3" x="408" y="851" width="27" height="27" /><rect class="cls-3" x="1228" y="842" width="7" height="68" /><rect class="cls-3" x="1249" y="842" width="7" height="68" /><rect class="cls-3" x="1269" y="842" width="7" height="68" /><rect class="cls-3" x="1374" y="836" width="25" height="25" /><rect class="cls-3" x="1425" y="795" width="25" height="26" /><rect class="cls-3" x="1434" y="859" width="33" height="33" /><rect class="cls-3" x="1483" y="676" width="31" height="41" /><rect class="cls-3" x="1546" y="643" width="56" height="19" /><rect class="cls-3" x="1546" y="800" width="34" height="35" /><rect class="cls-3" x="1477" y="655" width="42" height="9" /><rect class="cls-3" x="102" y="852" width="90" height="14" /><rect class="cls-3" x="99" y="880" width="95" height="12" /><rect class="cls-3" x="28" y="910" width="32" height="33" /></g><g id="Layer_1" data-name="Layer 1"><rect class="cls-5" x="-2.5" y="1018.5" width="61" height="61" transform="translate(-1021 1077) rotate(-90)" /><rect class="cls-5" x="959" y="118" width="61" height="1862" transform="translate(-59.5 2038.5) rotate(-90)" /><path class="cls-1" d="M-37.56,118.51" /><rect class="cls-5" x="897.5" y="57.5" width="61" height="1862" transform="translate(-60.5 1916.5) rotate(-90)" /><rect class="cls-5" x="1859" y="958" width="61" height="61" transform="translate(901 2878) rotate(-90)" /></g></svg></svg><svg xmlns="http://www.w3.org/2000/svg" viewBox="0 0 3840 1080" height="1080" width="3840" x="3840"><svg xmlns="http://www.w3.org/2000/svg" version="1.1" viewBox="0 0 1920 1080" height="1080" width="1920" x="0"><defs><style>      .cls-1 {        fill: none;        stroke: #000;        stroke-miterlimit: 10;      }      .cls-2 {        fill: #6464b5;      }      .cls-2, .cls-3, .cls-4, .cls-5 {        stroke-width: 0px;      }      .cls-3 {        fill: #2fffc8;      }      .cls-4 {        fill: #444c83;      }      .cls-5 {        fill: #363d47;      }    </style></defs><g id="Layer_2" data-name="Layer 2"><rect class="cls-2" x="-2" y="897" width="61" height="61" /><rect class="cls-2" x="59" y="897" width="61" height="61" /><rect class="cls-2" x="58" y="836" width="61" height="61" /><rect class="cls-2" x="-2" y="836" width="61" height="61" /><rect class="cls-2" x="-2" y="776" width="61" height="61" /><rect class="cls-2" x="-2" y="588" width="122" height="249" /><rect class="cls-2" x="112" y="710" width="122" height="249" /><rect class="cls-2" x="119" y="689" width="21" height="21" /><rect class="cls-2" x="140" y="689" width="21" height="21" /><rect class="cls-2" x="213" y="689" width="21" height="21" /><rect class="cls-2" x="192" y="689" width="21" height="21" /><rect class="cls-2" x="162" y="689" width="21" height="21" /><rect class="cls-2" x="177" y="689" width="21" height="21" /><rect class="cls-2" x="150" y="689" width="21" height="21" /><rect class="cls-2" x="150" y="668" width="21" height="21" /><rect class="cls-2" x="167" y="668" width="21" height="21" /><rect class="cls-2" x="188" y="668" width="21" height="21" /><rect class="cls-2" x="133" y="668" width="21" height="21" /><rect class="cls-2" x="150" y="647" width="21" height="21" /><rect class="cls-2" x="167" y="647" width="21" height="21" /><rect class="cls-2" x="234" y="843" width="583" height="115" /><rect class="cls-2" x="382" y="679" width="131" height="172" /><rect class="cls-2" x="797" y="786" width="131" height="172" /><rect class="cls-2" x="328" y="795" width="54" height="54" /><rect class="cls-2" x="453" y="619" width="60" height="60" /><rect class="cls-2" x="423" y="651" width="34" height="34" /><rect class="cls-2" x="634" y="654" width="109" height="189" /><rect class="cls-2" x="634" y="629" width="28" height="28" /><rect class="cls-2" x="743" y="815" width="28" height="28" /><rect class="cls-2" x="1184" y="657" width="137" height="303" /><rect class="cls-2" x="1320" y="854" width="600" height="104" /><rect class="cls-2" x="1320" y="773" width="81" height="81" /><rect class="cls-2" x="1752" y="786" width="69" height="69" /><rect class="cls-2" x="1821" y="786" width="69" height="69" /><rect class="cls-2" x="1820" y="717" width="69" height="69" /><rect class="cls-2" x="1371" y="743" width="30" height="30" /><rect class="cls-2" x="1184" y="601" width="56" height="56" /><rect class="cls-2" x="1184" y="601" width="56" height="56" /><rect class="cls-2" x="1184" y="601" width="56" height="56" /><rect class="cls-2" x="1401" y="807" width="48" height="48" /><rect class="cls-2" x="1854" y="683" width="35" height="34" /></g><g id="Layer_3" data-name="Layer 3"><rect class="cls-3" x="1194" y="620" width="12" height="46" /><rect class="cls-3" x="1217" y="620" width="12" height="46" /><rect class="cls-3" x="1252" y="888" width="18" height="18" /><rect class="cls-3" x="1287" y="822" width="18" height="18" /><rect class="cls-3" x="1240" y="768" width="18" height="18" /><rect class="cls-3" x="1287" y="717" width="18" height="18" /><rect class="cls-3" x="1379" y="752" width="14" height="12" /><rect class="cls-3" x="1761" y="796" width="51" height="8" /><rect class="cls-3" x="1761" y="811" width="51" height="8" /><rect class="cls-3" x="1761" y="827" width="51" height="8" /><rect class="cls-3" x="1761" y="841" width="51" height="8" /><rect class="cls-3" x="1350" y="888" width="66" height="13" /><rect class="cls-3" x="1436" y="888" width="66" height="13" /><rect class="cls-3" x="1525" y="888" width="66" height="13" /><rect class="cls-3" x="1610" y="888" width="66" height="13" /><rect class="cls-3" x="1829" y="729" width="25" height="70" /><rect class="cls-3" x="1768" y="897" width="26" height="26" /><rect class="cls-3" x="1828" y="923" width="26" height="26" /><rect class="cls-3" x="1841" y="855" width="26" height="26" /><rect class="cls-3" x="1194" y="676" width="34" height="25" /><rect class="cls-3" x="17" y="612" width="31" height="31" /><rect class="cls-3" x="73" y="612" width="31" height="31" /><rect class="cls-3" x="73" y="653" width="31" height="31" /><rect class="cls-3" x="17" y="653" width="31" height="31" /><rect class="cls-3" x="17" y="704" width="87" height="25" /><rect class="cls-3" x="17" y="743" width="95" height="10" /><rect class="cls-3" x="649" y="681" width="17" height="70" /><rect class="cls-3" x="680" y="682" width="17" height="70" /><rect class="cls-3" x="709" y="682" width="17" height="70" /><rect class="cls-3" x="457.5" y="646.5" width="17" height="60" transform="translate(1142.5 210.5) rotate(90)" /><rect class="cls-3" x="83" y="872" width="22" height="23" /><rect class="cls-3" x="143" y="807" width="22" height="23" /><rect class="cls-3" x="37" y="787" width="22" height="23" /><rect class="cls-3" x="173" y="905" width="22" height="23" /><rect class="cls-3" x="259" y="872" width="22" height="23" /><rect class="cls-3" x="490" y="872" width="24" height="53" /><rect class="cls-3" x="527" y="872" width="24" height="53" /><rect class="cls-3" x="564" y="875" width="24" height="53" /><rect class="cls-3" x="338" y="805" width="34" height="34" /><rect class="cls-3" x="398" y="701" width="10" height="86" /><rect class="cls-3" x="423" y="704" width="9" height="82" /><rect class="cls-3" x="838" y="849" width="24" height="23" /><rect class="cls-3" x="743" y="888" width="22" height="22" /><rect class="cls-3" x="673" y="849" width="19" height="19" /></g><g id="Layer_4" data-name="Layer 4"><rect class="cls-4" x="229" y="658" width="160" height="299" /><rect class="cls-4" x="385" y="765" width="145" height="221" /><rect class="cls-4" x="385" y="718" width="50" height="50" /><rect class="cls-4" x="425" y="738" width="30" height="30" /><rect class="cls-4" x="229" y="629" width="30" height="30" /><rect class="cls-4" x="257" y="629" width="30" height="30" /><rect class="cls-4" x="229" y="604" width="30" height="30" /><rect class="cls-4" x="389" y="682" width="39" height="39" /><rect class="cls-4" x="526" y="931" width="27" height="27" /><rect class="cls-4" x="899" y="567" width="179" height="395" /><rect class="cls-4" x="757" y="786" width="142" height="171" /><rect class="cls-4" x="899" y="532" width="35" height="35" /><rect class="cls-4" x="841" y="732" width="60" height="60" /><rect class="cls-4" x="1078" y="891" width="66" height="66" /><rect class="cls-4" x="108" y="789" width="119" height="172" /><rect class="cls-4" x="1042" y="923" width="102" height="37" /><rect class="cls-4" x="1141" y="928" width="72" height="33" /><rect class="cls-4" x="1075" y="865" width="36" height="33" /><rect class="cls-4" x="1213" y="823" width="243" height="143" /><rect class="cls-4" x="1448" y="627" width="177" height="338" /><rect class="cls-4" x="1374" y="744" width="85" height="85" /><rect class="cls-4" x="1334" y="792" width="40" height="37" /><rect class="cls-4" x="1449" y="584" width="50" height="50" /><rect class="cls-4" x="1490" y="607" width="24" height="24" /><rect class="cls-4" x="1625" y="910" width="295" height="47" /><rect class="cls-4" x="0" y="861" width="108" height="96" /><rect class="cls-4" x="73" y="823" width="39" height="39" /></g><g id="Layer_5" data-name="Layer 5"><rect class="cls-3" x="961" y="582" width="103" height="13" /><rect class="cls-3" x="961" y="606" width="103" height="13" /><rect class="cls-3" x="961" y="630" width="103" height="13" /><rect class="cls-3" x="889" y="624" width="103" height="13" transform="translate(1571 -310) rotate(90)" /><rect class="cls-3" x="961" y="653" width="103" height="13" transform="translate(2025 1319) rotate(180)" /><rect class="cls-3" x="786" y="895" width="46" height="47" /><rect class="cls-3" x="788" y="837" width="42" height="42" /><rect class="cls-3" x="916" y="786" width="31" height="31" /><rect class="cls-3" x="989" y="732" width="23" height="24" /><rect class="cls-3" x="988" y="899" width="34" height="35" /><rect class="cls-3" x="1000" y="792" width="12" height="73" /><rect class="cls-3" x="491" y="787" width="23" height="54" /><rect class="cls-3" x="292" y="673" width="74" height="21" /><rect class="cls-3" x="296" y="707" width="102" height="14" /><rect class="cls-3" x="281" y="897" width="26" height="26" /><rect class="cls-3" x="329" y="789" width="28" height="28" /><rect class="cls-3" x="408" y="851" width="27" height="27" /><rect class="cls-3" x="1228" y="842" width="7" height="68" /><rect class="cls-3" x="1249" y="842" width="7" height="68" /><rect class="cls-3" x="1269" y="842" width="7" height="68" /><rect class="cls-3" x="1374" y="836" width="25" height="25" /><rect class="cls-3" x="1425" y="795" width="25" height="26" /><rect class="cls-3" x="1434" y="859" width="33" height="33" /><rect class="cls-3" x="1483" y="676" width="31" height="41" /><rect class="cls-3" x="1546" y="643" width="56" height="19" /><rect class="cls-3" x="1546" y="800" width="34" height="35" /><rect class="cls-3" x="1477" y="655" width="42" height="9" /><rect class="cls-3" x="102" y="852" width="90" height="14" /><rect class="cls-3" x="99" y="880" width="95" height="12" /><rect class="cls-3" x="28" y="910" width="32" height="33" /></g><g id="Layer_1" data-name="Layer 1"><rect class="cls-5" x="-2.5" y="1018.5" width="61" height="61" transform="translate(-1021 1077) rotate(-90)" /><rect class="cls-5" x="959" y="118" width="61" height="1862" transform="translate(-59.5 2038.5) rotate(-90)" /><path class="cls-1" d="M-37.56,118.51" /><rect class="cls-5" x="897.5" y="57.5" width="61" height="1862" transform="translate(-60.5 1916.5) rotate(-90)" /><rect class="cls-5" x="1859" y="958" width="61" height="61" transform="translate(901 2878) rotate(-90)" /></g></svg><svg xmlns="http://www.w3.org/2000/svg" version="1.1" viewBox="0 0 1920 1080" height="1080" width="1920" x="1920"><defs><style>      .cls-1 {        fill: none;        stroke: #000;        stroke-miterlimit: 10;      }      .cls-2 {        fill: #6464b5;      }      .cls-2, .cls-3, .cls-4, .cls-5 {        stroke-width: 0px;      }      .cls-3 {        fill: #2fffc8;      }      .cls-4 {        fill: #444c83;      }      .cls-5 {        fill: #363d47;      }    </style></defs><g id="Layer_2" data-name="Layer 2"><rect class="cls-2" x="-2" y="897" width="61" height="61" /><rect class="cls-2" x="59" y="897" width="61" height="61" /><rect class="cls-2" x="58" y="836" width="61" height="61" /><rect class="cls-2" x="-2" y="836" width="61" height="61" /><rect class="cls-2" x="-2" y="776" width="61" height="61" /><rect class="cls-2" x="-2" y="588" width="122" height="249" /><rect class="cls-2" x="112" y="710" width="122" height="249" /><rect class="cls-2" x="119" y="689" width="21" height="21" /><rect class="cls-2" x="140" y="689" width="21" height="21" /><rect class="cls-2" x="213" y="689" width="21" height="21" /><rect class="cls-2" x="192" y="689" width="21" height="21" /><rect class="cls-2" x="162" y="689" width="21" height="21" /><rect class="cls-2" x="177" y="689" width="21" height="21" /><rect class="cls-2" x="150" y="689" width="21" height="21" /><rect class="cls-2" x="150" y="668" width="21" height="21" /><rect class="cls-2" x="167" y="668" width="21" height="21" /><rect class="cls-2" x="188" y="668" width="21" height="21" /><rect class="cls-2" x="133" y="668" width="21" height="21" /><rect class="cls-2" x="150" y="647" width="21" height="21" /><rect class="cls-2" x="167" y="647" width="21" height="21" /><rect class="cls-2" x="234" y="843" width="583" height="115" /><rect class="cls-2" x="382" y="679" width="131" height="172" /><rect class="cls-2" x="797" y="786" width="131" height="172" /><rect class="cls-2" x="328" y="795" width="54" height="54" /><rect class="cls-2" x="453" y="619" width="60" height="60" /><rect class="cls-2" x="423" y="651" width="34" height="34" /><rect class="cls-2" x="634" y="654" width="109" height="189" /><rect class="cls-2" x="634" y="629" width="28" height="28" /><rect class="cls-2" x="743" y="815" width="28" height="28" /><rect class="cls-2" x="1184" y="657" width="137" height="303" /><rect class="cls-2" x="1320" y="854" width="600" height="104" /><rect class="cls-2" x="1320" y="773" width="81" height="81" /><rect class="cls-2" x="1752" y="786" width="69" height="69" /><rect class="cls-2" x="1821" y="786" width="69" height="69" /><rect class="cls-2" x="1820" y="717" width="69" height="69" /><rect class="cls-2" x="1371" y="743" width="30" height="30" /><rect class="cls-2" x="1184" y="601" width="56" height="56" /><rect class="cls-2" x="1184" y="601" width="56" height="56" /><rect class="cls-2" x="1184" y="601" width="56" height="56" /><rect class="cls-2" x="1401" y="807" width="48" height="48" /><rect class="cls-2" x="1854" y="683" width="35" height="34" /></g><g id="Layer_3" data-name="Layer 3"><rect class="cls-3" x="1194" y="620" width="12" height="46" /><rect class="cls-3" x="1217" y="620" width="12" height="46" /><rect class="cls-3" x="1252" y="888" width="18" height="18" /><rect class="cls-3" x="1287" y="822" width="18" height="18" /><rect class="cls-3" x="1240" y="768" width="18" height="18" /><rect class="cls-3" x="1287" y="717" width="18" height="18" /><rect class="cls-3" x="1379" y="752" width="14" height="12" /><rect class="cls-3" x="1761" y="796" width="51" height="8" /><rect class="cls-3" x="1761" y="811" width="51" height="8" /><rect class="cls-3" x="1761" y="827" width="51" height="8" /><rect class="cls-3" x="1761" y="841" width="51" height="8" /><rect class="cls-3" x="1350" y="888" width="66" height="13" /><rect class="cls-3" x="1436" y="888" width="66" height="13" /><rect class="cls-3" x="1525" y="888" width="66" height="13" /><rect class="cls-3" x="1610" y="888" width="66" height="13" /><rect class="cls-3" x="1829" y="729" width="25" height="70" /><rect class="cls-3" x="1768" y="897" width="26" height="26" /><rect class="cls-3" x="1828" y="923" width="26" height="26" /><rect class="cls-3" x="1841" y="855" width="26" height="26" /><rect class="cls-3" x="1194" y="676" width="34" height="25" /><rect class="cls-3" x="17" y="612" width="31" height="31" /><rect class="cls-3" x="73" y="612" width="31" height="31" /><rect class="cls-3" x="73" y="653" width="31" height="31" /><rect class="cls-3" x="17" y="653" width="31" height="31" /><rect class="cls-3" x="17" y="704" width="87" height="25" /><rect class="cls-3" x="17" y="743" width="95" height="10" /><rect class="cls-3" x="649" y="681" width="17" height="70" /><rect class="cls-3" x="680" y="682" width="17" height="70" /><rect class="cls-3" x="709" y="682" width="17" height="70" /><rect class="cls-3" x="457.5" y="646.5" width="17" height="60" transform="translate(1142.5 210.5) rotate(90)" /><rect class="cls-3" x="83" y="872" width="22" height="23" /><rect class="cls-3" x="143" y="807" width="22" height="23" /><rect class="cls-3" x="37" y="787" width="22" height="23" /><rect class="cls-3" x="173" y="905" width="22" height="23" /><rect class="cls-3" x="259" y="872" width="22" height="23" /><rect class="cls-3" x="490" y="872" width="24" height="53" /><rect class="cls-3" x="527" y="872" width="24" height="53" /><rect class="cls-3" x="564" y="875" width="24" height="53" /><rect class="cls-3" x="338" y="805" width="34" height="34" /><rect class="cls-3" x="398" y="701" width="10" height="86" /><rect class="cls-3" x="423" y="704" width="9" height="82" /><rect class="cls-3" x="838" y="849" width="24" height="23" /><rect class="cls-3" x="743" y="888" width="22" height="22" /><rect class="cls-3" x="673" y="849" width="19" height="19" /></g><g id="Layer_4" data-name="Layer 4"><rect class="cls-4" x="229" y="658" width="160" height="299" /><rect class="cls-4" x="385" y="765" width="145" height="221" /><rect class="cls-4" x="385" y="718" width="50" height="50" /><rect class="cls-4" x="425" y="738" width="30" height="30" /><rect class="cls-4" x="229" y="629" width="30" height="30" /><rect class="cls-4" x="257" y="629" width="30" height="30" /><rect class="cls-4" x="229" y="604" width="30" height="30" /><rect class="cls-4" x="389" y="682" width="39" height="39" /><rect class="cls-4" x="526" y="931" width="27" height="27" /><rect class="cls-4" x="899" y="567" width="179" height="395" /><rect class="cls-4" x="757" y="786" width="142" height="171" /><rect class="cls-4" x="899" y="532" width="35" height="35" /><rect class="cls-4" x="841" y="732" width="60" height="60" /><rect class="cls-4" x="1078" y="891" width="66" height="66" /><rect class="cls-4" x="108" y="789" width="119" height="172" /><rect class="cls-4" x="1042" y="923" width="102" height="37" /><rect class="cls-4" x="1141" y="928" width="72" height="33" /><rect class="cls-4" x="1075" y="865" width="36" height="33" /><rect class="cls-4" x="1213" y="823" width="243" height="143" /><rect class="cls-4" x="1448" y="627" width="177" height="338" /><rect class="cls-4" x="1374" y="744" width="85" height="85" /><rect class="cls-4" x="1334" y="792" width="40" height="37" /><rect class="cls-4" x="1449" y="584" width="50" height="50" /><rect class="cls-4" x="1490" y="607" width="24" height="24" /><rect class="cls-4" x="1625" y="910" width="295" height="47" /><rect class="cls-4" x="0" y="861" width="108" height="96" /><rect class="cls-4" x="73" y="823" width="39" height="39" /></g><g id="Layer_5" data-name="Layer 5"><rect class="cls-3" x="961" y="582" width="103" height="13" /><rect class="cls-3" x="961" y="606" width="103" height="13" /><rect class="cls-3" x="961" y="630" width="103" height="13" /><rect class="cls-3" x="889" y="624" width="103" height="13" transform="translate(1571 -310) rotate(90)" /><rect class="cls-3" x="961" y="653" width="103" height="13" transform="translate(2025 1319) rotate(180)" /><rect class="cls-3" x="786" y="895" width="46" height="47" /><rect class="cls-3" x="788" y="837" width="42" height="42" /><rect class="cls-3" x="916" y="786" width="31" height="31" /><rect class="cls-3" x="989" y="732" width="23" height="24" /><rect class="cls-3" x="988" y="899" width="34" height="35" /><rect class="cls-3" x="1000" y="792" width="12" height="73" /><rect class="cls-3" x="491" y="787" width="23" height="54" /><rect class="cls-3" x="292" y="673" width="74" height="21" /><rect class="cls-3" x="296" y="707" width="102" height="14" /><rect class="cls-3" x="281" y="897" width="26" height="26" /><rect class="cls-3" x="329" y="789" width="28" height="28" /><rect class="cls-3" x="408" y="851" width="27" height="27" /><rect class="cls-3" x="1228" y="842" width="7" height="68" /><rect class="cls-3" x="1249" y="842" width="7" height="68" /><rect class="cls-3" x="1269" y="842" width="7" height="68" /><rect class="cls-3" x="1374" y="836" width="25" height="25" /><rect class="cls-3" x="1425" y="795" width="25" height="26" /><rect class="cls-3" x="1434" y="859" width="33" height="33" /><rect class="cls-3" x="1483" y="676" width="31" height="41" /><rect class="cls-3" x="1546" y="643" width="56" height="19" /><rect class="cls-3" x="1546" y="800" width="34" height="35" /><rect class="cls-3" x="1477" y="655" width="42" height="9" /><rect class="cls-3" x="102" y="852" width="90" height="14" /><rect class="cls-3" x="99" y="880" width="95" height="12" /><rect class="cls-3" x="28" y="910" width="32" height="33" /></g><g id="Layer_1" data-name="Layer 1"><rect class="cls-5" x="-2.5" y="1018.5" width="61" height="61" transform="translate(-1021 1077) rotate(-90)" /><rect class="cls-5" x="959" y="118" width="61" height="1862" transform="translate(-59.5 2038.5) rotate(-90)" /><path class="cls-1" d="M-37.56,118.51" /><rect class="cls-5" x="897.5" y="57.5" width="61" height="1862" transform="translate(-60.5 1916.5) rotate(-90)" /><rect class="cls-5" x="1859" y="958" width="61" height="61" transform="translate(901 2878) rotate(-90)" /></g></svg></svg></svg>